<svg xmlns="http://www.w3.org/2000/svg" fill="none" viewBox="0 0 23 24">
  <path fill="#999" d="M10.763 1.924L3.187 9.5C.048 12.638.037 17.715 3.16 20.839c3.124 3.124 8.201 3.113 11.34-.025l7.575-7.576-.942-.943-7.577 7.576c-2.615 2.615-6.845 2.625-9.449.021-2.603-2.604-2.594-6.834.021-9.45l7.577-7.575c1.917-1.918 5.02-1.925 6.929-.016 1.91 1.91 1.902 5.012-.016 6.93l-7.576 7.576a3.118 3.118 0 01-4.41.01 3.119 3.119 0 01.01-4.41L14.22 5.38l-.943-.943L5.7 12.014c-1.744 1.744-1.75 4.564-.014 6.3 1.736 1.735 4.556 1.729 6.3-.015l7.575-7.576c2.441-2.44 2.45-6.389.02-8.819-2.43-2.43-6.379-2.42-8.82.02z"/>
</svg>